<svg width="28" height="28" viewBox="0 0 28 28" fill="none" xmlns="http://www.w3.org/2000/svg">
<path d="M0.5 6C0.5 2.96243 2.96243 0.5 6 0.5H22C25.0376 0.5 27.5 2.96243 27.5 6V22C27.5 25.0376 25.0376 27.5 22 27.5H6C2.96243 27.5 0.5 25.0376 0.5 22V6Z" fill="white"/>
<path d="M0.5 6C0.5 2.96243 2.96243 0.5 6 0.5H22C25.0376 0.5 27.5 2.96243 27.5 6V22C27.5 25.0376 25.0376 27.5 22 27.5H6C2.96243 27.5 0.5 25.0376 0.5 22V6Z" stroke="#E9E6E6"/>
<path d="M8.75 14.75L11.75 17.75L19.25 10.25" stroke="#77AAF9" stroke-linecap="round" stroke-linejoin="round"/>
</svg>
