<svg width="32" height="34" viewBox="0 0 32 34" fill="none" xmlns="http://www.w3.org/2000/svg">
<g filter="url(#filter0_d_1986_7373)">
<g clip-path="url(#clip0_1986_7373)">
<path d="M3 13C3 5.8203 8.8203 0 16 0C23.1797 0 29 5.8203 29 13C29 20.1797 23.1797 26 16 26C8.8203 26 3 20.1797 3 13Z" fill="white"/>
<path d="M12.75 9.75L16 13M19.25 16.25L16 13M16 13L19.25 9.75M16 13L12.75 16.25" stroke="#FF3D00" stroke-width="1.5" stroke-linecap="round" stroke-linejoin="round"/>
</g>
<path d="M3.5 13C3.5 6.09644 9.09644 0.5 16 0.5C22.9036 0.5 28.5 6.09644 28.5 13C28.5 19.9036 22.9036 25.5 16 25.5C9.09644 25.5 3.5 19.9036 3.5 13Z" stroke="#FF8888"/>
</g>
<defs>
<filter id="filter0_d_1986_7373" x="0.0999999" y="0" width="31.8" height="33.9" filterUnits="userSpaceOnUse" color-interpolation-filters="sRGB">
<feFlood flood-opacity="0" result="BackgroundImageFix"/>
<feColorMatrix in="SourceAlpha" type="matrix" values="0 0 0 0 0 0 0 0 0 0 0 0 0 0 0 0 0 0 127 0" result="hardAlpha"/>
<feMorphology radius="3" operator="erode" in="SourceAlpha" result="effect1_dropShadow_1986_7373"/>
<feOffset dy="5"/>
<feGaussianBlur stdDeviation="2.95"/>
<feComposite in2="hardAlpha" operator="out"/>
<feColorMatrix type="matrix" values="0 0 0 0 0 0 0 0 0 0 0 0 0 0 0 0 0 0 0.16 0"/>
<feBlend mode="normal" in2="BackgroundImageFix" result="effect1_dropShadow_1986_7373"/>
<feBlend mode="normal" in="SourceGraphic" in2="effect1_dropShadow_1986_7373" result="shape"/>
</filter>
<clipPath id="clip0_1986_7373">
<path d="M3 13C3 5.8203 8.8203 0 16 0C23.1797 0 29 5.8203 29 13C29 20.1797 23.1797 26 16 26C8.8203 26 3 20.1797 3 13Z" fill="white"/>
</clipPath>
</defs>
</svg>
