<svg width="24" height="24" viewBox="0 0 24 24" fill="none" xmlns="http://www.w3.org/2000/svg">
<path d="M0 6C0 2.68629 2.68629 0 6 0H18C21.3137 0 24 2.68629 24 6V18C24 21.3137 21.3137 24 18 24H6C2.68629 24 0 21.3137 0 18V6Z" fill="#F5F9FF"/>
<path d="M9.5 13.75L14.5 13.75" stroke="#3E86F5" stroke-linecap="round" stroke-linejoin="round"/>
<path d="M9.5 11.25L10.75 11.25" stroke="#3E86F5" stroke-linecap="round" stroke-linejoin="round"/>
<path d="M9.5 16.25L12 16.25" stroke="#3E86F5" stroke-linecap="round" stroke-linejoin="round"/>
<path d="M10.75 6.875H9C7.89543 6.875 7 7.77043 7 8.875V16.75C7 17.8546 7.89543 18.75 9 18.75H15C16.1046 18.75 17 17.8546 17 16.75V8.875C17 7.77043 16.1046 6.875 15 6.875H13.5625M10.75 6.875V5.625M10.75 6.875V8.125" stroke="#3E86F5" stroke-linecap="round" stroke-linejoin="round"/>
</svg>
