<svg width="25" height="24" viewBox="0 0 25 24" fill="none" xmlns="http://www.w3.org/2000/svg">
<path d="M0.38916 6C0.38916 2.68629 3.07545 0 6.38916 0H18.3892C21.7029 0 24.3892 2.68629 24.3892 6V18C24.3892 21.3137 21.7029 24 18.3892 24H6.38916C3.07545 24 0.38916 21.3137 0.38916 18V6Z" fill="#F5F9FF"/>
<g clip-path="url(#clip0_2387_8488)">
<path d="M17.3892 13.75V16.875C17.3892 17.2202 17.1093 17.5 16.7642 17.5H8.01416C7.66898 17.5 7.38916 17.2202 7.38916 16.875V8.125C7.38916 7.77982 7.66898 7.5 8.01416 7.5H11.1392" stroke="#3E86F5" stroke-linecap="round" stroke-linejoin="round"/>
<path d="M11.1392 13.75H13.0142L18.6392 8.125L16.7642 6.25L11.1392 11.875V13.75Z" stroke="#3E86F5" stroke-linecap="round" stroke-linejoin="round"/>
<path d="M14.8892 8.125L16.7642 10" stroke="#3E86F5" stroke-linecap="round" stroke-linejoin="round"/>
</g>
<defs>
<clipPath id="clip0_2387_8488">
<rect x="4.88916" y="5" width="15" height="15" rx="4" fill="white"/>
</clipPath>
</defs>
</svg>
