<svg width="16" height="15" viewBox="0 0 16 15" fill="none" xmlns="http://www.w3.org/2000/svg">
<path d="M4.875 12.5C4.875 11.4645 6.27411 10.625 8 10.625C9.72589 10.625 11.125 11.4645 11.125 12.5" stroke="#3E86F5" stroke-linecap="round" stroke-linejoin="round"/>
<path d="M11.75 8.90594C12.8537 9.19528 13.625 9.85606 13.625 10.6249" stroke="#3E86F5" stroke-linecap="round" stroke-linejoin="round"/>
<path d="M4.25 8.90594C3.14631 9.19528 2.375 9.85606 2.375 10.6249" stroke="#3E86F5" stroke-linecap="round" stroke-linejoin="round"/>
<path d="M8 8.75C9.03553 8.75 9.875 7.91053 9.875 6.875C9.875 5.83947 9.03553 5 8 5C6.96447 5 6.125 5.83947 6.125 6.875C6.125 7.91053 6.96447 8.75 8 8.75Z" stroke="#3E86F5" stroke-linecap="round" stroke-linejoin="round"/>
<path d="M11.75 6.39757C12.1336 6.05424 12.375 5.55531 12.375 5C12.375 3.96447 11.5355 3.125 10.5 3.125C10.0198 3.125 9.58172 3.30553 9.25 3.60243" stroke="#3E86F5" stroke-linecap="round" stroke-linejoin="round"/>
<path d="M4.25 6.39757C3.86641 6.05424 3.625 5.55531 3.625 5C3.625 3.96447 4.46447 3.125 5.5 3.125C5.98022 3.125 6.41828 3.30553 6.75 3.60243" stroke="#3E86F5" stroke-linecap="round" stroke-linejoin="round"/>
</svg>
