<svg width="41" height="41" viewBox="0 0 41 41" fill="none" xmlns="http://www.w3.org/2000/svg">
<path d="M1 8.5C1 4.35786 4.35786 1 8.5 1H32.5C36.6421 1 40 4.35786 40 8.5V32.5C40 36.6421 36.6421 40 32.5 40H8.5C4.35786 40 1 36.6421 1 32.5V8.5Z" fill="#77AAF9"/>
<path d="M1 8.5C1 4.35786 4.35786 1 8.5 1H32.5C36.6421 1 40 4.35786 40 8.5V32.5C40 36.6421 36.6421 40 32.5 40H8.5C4.35786 40 1 36.6421 1 32.5V8.5Z" stroke="#599AFE"/>
<path d="M14.9995 20.5L13.8314 15.244C13.5606 14.0255 14.8097 13.0286 15.9378 13.5629L27.7208 19.1444C28.8647 19.6862 28.8647 21.3138 27.7208 21.8556L15.9378 27.4371C14.8097 27.9714 13.5606 26.9745 13.8314 25.756L14.9995 20.5ZM14.9995 20.5H20.4993" stroke="white" stroke-linecap="round" stroke-linejoin="round"/>
</svg>
