<svg width="24" height="24" viewBox="0 0 24 24" fill="none" xmlns="http://www.w3.org/2000/svg">
<path d="M0 6C0 2.68629 2.68629 0 6 0H18C21.3137 0 24 2.68629 24 6V18C24 21.3137 21.3137 24 18 24H6C2.68629 24 0 21.3137 0 18V6Z" fill="#EFFFF5"/>
<path d="M6.375 8.75C6.375 8.05964 6.93464 7.5 7.625 7.5H16.375C17.0654 7.5 17.625 8.05964 17.625 8.75V16.875C17.625 17.5654 17.0654 18.125 16.375 18.125H7.625C6.93464 18.125 6.375 17.5654 6.375 16.875V8.75Z" stroke="#3AB96D" stroke-linecap="round" stroke-linejoin="round"/>
<path d="M6.375 10L17.625 10" stroke="#3AB96D" stroke-linecap="square" stroke-linejoin="round"/>
<path d="M14.5 6.875V8.125" stroke="#3AB96D" stroke-linecap="round" stroke-linejoin="round"/>
<path d="M9.5 6.875V8.125" stroke="#3AB96D" stroke-linecap="round" stroke-linejoin="round"/>
<path d="M14.5 15.3125H14.5013V15.3138H14.5V15.3125Z" stroke="#3AB96D" stroke-width="1.5" stroke-linecap="round" stroke-linejoin="round"/>
<path d="M12 15.3125H12.0012V15.3138H12V15.3125Z" stroke="#3AB96D" stroke-width="1.5" stroke-linecap="round" stroke-linejoin="round"/>
<path d="M9.5 15.3125H9.50125V15.3138H9.5V15.3125Z" stroke="#3AB96D" stroke-width="1.5" stroke-linecap="round" stroke-linejoin="round"/>
<path d="M14.5 12.8125H14.5013V12.8137H14.5V12.8125Z" stroke="#3AB96D" stroke-width="1.5" stroke-linecap="round" stroke-linejoin="round"/>
<path d="M12 12.8125H12.0012V12.8137H12V12.8125Z" stroke="#3AB96D" stroke-width="1.5" stroke-linecap="round" stroke-linejoin="round"/>
<path d="M9.5 12.8125H9.50125V12.8137H9.5V12.8125Z" stroke="#3AB96D" stroke-width="1.5" stroke-linecap="round" stroke-linejoin="round"/>
</svg>
