<svg width="28" height="29" viewBox="0 0 28 29" fill="none" xmlns="http://www.w3.org/2000/svg">
<path d="M0 6.5C0 3.18629 2.68629 0.5 6 0.5H22C25.3137 0.5 28 3.18629 28 6.5V22.5C28 25.8137 25.3137 28.5 22 28.5H6C2.68629 28.5 0 25.8137 0 22.5V6.5Z" fill="#F5F9FF"/>
<path d="M10.25 20.5C10.25 19.2574 11.9289 18.25 14 18.25C16.0711 18.25 17.75 19.2574 17.75 20.5" stroke="#77AAF9" stroke-linecap="round" stroke-linejoin="round"/>
<path d="M18.5 16.187C19.8244 16.5342 20.75 17.3271 20.75 18.2498" stroke="#77AAF9" stroke-linecap="round" stroke-linejoin="round"/>
<path d="M9.5 16.187C8.17557 16.5342 7.25 17.3271 7.25 18.2498" stroke="#77AAF9" stroke-linecap="round" stroke-linejoin="round"/>
<path d="M14 16C15.2426 16 16.25 14.9926 16.25 13.75C16.25 12.5074 15.2426 11.5 14 11.5C12.7574 11.5 11.75 12.5074 11.75 13.75C11.75 14.9926 12.7574 16 14 16Z" stroke="#77AAF9" stroke-linecap="round" stroke-linejoin="round"/>
<path d="M18.5 13.1771C18.9603 12.7651 19.25 12.1664 19.25 11.5C19.25 10.2574 18.2426 9.25 17 9.25C16.4237 9.25 15.8981 9.46664 15.5 9.82292" stroke="#77AAF9" stroke-linecap="round" stroke-linejoin="round"/>
<path d="M9.5 13.1771C9.03969 12.7651 8.75 12.1664 8.75 11.5C8.75 10.2574 9.75736 9.25 11 9.25C11.5763 9.25 12.1019 9.46664 12.5 9.82292" stroke="#77AAF9" stroke-linecap="round" stroke-linejoin="round"/>
</svg>
