<svg width="28" height="28" viewBox="0 0 28 28" fill="none" xmlns="http://www.w3.org/2000/svg">
<path d="M0 6C0 2.68629 2.68629 0 6 0H22C25.3137 0 28 2.68629 28 6V22C28 25.3137 25.3137 28 22 28H6C2.68629 28 0 25.3137 0 22V6Z" fill="#F5F9FF"/>
<path d="M7.25 7.25L20.75 20.75" stroke="#77AAF9" stroke-linecap="round" stroke-linejoin="round"/>
<path d="M12.875 13.0078C12.6416 13.2722 12.5 13.6196 12.5 14C12.5 14.8284 13.1716 15.5 14 15.5C14.3804 15.5 14.7277 15.3584 14.9922 15.125" stroke="#77AAF9" stroke-linecap="round" stroke-linejoin="round"/>
<path d="M14 9.5C17.0063 9.5 19.0261 11.8687 20.75 14M10.5214 10.6708C9.26001 11.5547 8.2092 12.8141 7.25 14C8.66642 16.2432 11.2113 18.5 14 18.5C15.1624 18.5 16.2825 18.1079 17.2962 17.4881" stroke="#77AAF9" stroke-linecap="round" stroke-linejoin="round"/>
</svg>
