<svg width="181" height="181" viewBox="0 0 181 181" fill="none" xmlns="http://www.w3.org/2000/svg">
<g clip-path="url(#clip0_2432_1927)">
<path d="M84.3892 90.126H90.3892M96.3892 90.126H90.3892M90.3892 90.126V84.126M90.3892 90.126V96.126" stroke="#3E86F5" stroke-width="1.5" stroke-linecap="round" stroke-linejoin="round"/>
<path d="M69.2941 108.361C63.3682 102.659 56.6462 99.657 49.8037 99.657C42.9611 99.657 36.2391 102.659 30.3133 108.361L-21.6611 160.335L-12.0869 192.664L197.178 195.399L186.236 160.335L160.249 134.348C154.323 128.646 147.601 125.644 140.759 125.644C133.916 125.644 127.194 128.646 121.268 134.348L108.275 147.342L69.2941 108.361ZM69.2941 108.361L134.262 173.329" stroke="#E9E9E9" stroke-linecap="round" stroke-linejoin="round"/>
</g>
<path d="M0.88916 90.126C0.88916 40.6965 40.9597 0.625977 90.3892 0.625977C139.819 0.625977 179.889 40.6965 179.889 90.126C179.889 139.555 139.819 179.626 90.3892 179.626C40.9597 179.626 0.88916 139.555 0.88916 90.126Z" stroke="#E9E9E9"/>
<defs>
<clipPath id="clip0_2432_1927">
<path d="M0.38916 90.126C0.38916 40.4203 40.6835 0.125977 90.3892 0.125977C140.095 0.125977 180.389 40.4203 180.389 90.126C180.389 139.832 140.095 180.126 90.3892 180.126C40.6835 180.126 0.38916 139.832 0.38916 90.126Z" fill="white"/>
</clipPath>
</defs>
</svg>
