<svg width="376" height="211" viewBox="0 0 376 211" fill="none" xmlns="http://www.w3.org/2000/svg">
<g clip-path="url(#clip0_2432_1917)">
<path d="M182.389 105.126H188.389M194.389 105.126H188.389M188.389 105.126V99.126M188.389 105.126V111.126" stroke="#3E86F5" stroke-width="1.5" stroke-linecap="round" stroke-linejoin="round"/>
<path d="M149.726 116.095C138.162 104.968 125.044 99.1099 111.691 99.1099C98.3382 99.1099 85.2205 104.968 73.6565 116.095L-27.769 217.521L-9.08539 280.608L399.286 285.946L377.933 217.521L327.22 166.808C315.656 155.681 302.539 149.823 289.186 149.823C275.833 149.823 262.715 155.681 251.151 166.808L225.795 192.165L149.726 116.095ZM149.726 116.095L276.508 242.877" stroke="#E9E9E9" stroke-linecap="round" stroke-linejoin="round"/>
</g>
<path d="M0.88916 16.126C0.88916 7.56556 7.82875 0.625977 16.3892 0.625977H359.389C367.95 0.625977 374.889 7.56556 374.889 16.126V194.126C374.889 202.686 367.95 209.626 359.389 209.626H16.3892C7.82875 209.626 0.88916 202.686 0.88916 194.126V16.126Z" stroke="#E9E9E9"/>
<defs>
<clipPath id="clip0_2432_1917">
<path d="M0.38916 16.126C0.38916 7.28942 7.5526 0.125977 16.3892 0.125977H359.389C368.226 0.125977 375.389 7.28942 375.389 16.126V194.126C375.389 202.963 368.226 210.126 359.389 210.126H16.3892C7.55261 210.126 0.38916 202.963 0.38916 194.126V16.126Z" fill="white"/>
</clipPath>
</defs>
</svg>
