<svg width="250" height="67" viewBox="0 0 250 67" fill="none" xmlns="http://www.w3.org/2000/svg">
<mask id="path-1-outside-1_3488_17259" maskUnits="userSpaceOnUse" x="2" y="-1" width="119" height="63" fill="black">
<rect fill="white" x="2" y="-1" width="119" height="63"/>
<path d="M3.608 61L10.66 0.319999H22.304L36.244 46.814L50.102 0.319999H61.664L68.798 61H57.072L51.824 16.31L53.71 16.474L41.82 61H30.422L18.368 16.474L20.418 16.392L15.334 61H3.608ZM88.7874 61V42.632L70.5014 0.319999H83.1294L95.1014 30.25L106.991 0.319999H119.127L100.923 42.632V61H88.7874Z"/>
</mask>
<path d="M3.608 61L2.61469 60.8846L2.48505 62H3.608V61ZM10.66 0.319999V-0.680001H9.76949L9.66669 0.20456L10.66 0.319999ZM22.304 0.319999L23.2619 0.0328063L23.0482 -0.680001H22.304V0.319999ZM36.244 46.814L35.2861 47.1012L36.2468 50.3054L37.2023 47.0996L36.244 46.814ZM50.102 0.319999V-0.680001H49.3566L49.1437 0.0343575L50.102 0.319999ZM61.664 0.319999L62.6572 0.203236L62.5533 -0.680001H61.664V0.319999ZM68.798 61V62H69.9225L69.7912 60.8832L68.798 61ZM57.072 61L56.0788 61.1166L56.1826 62H57.072V61ZM51.824 16.31L51.9106 15.3138L50.6877 15.2074L50.8308 16.4266L51.824 16.31ZM53.71 16.474L54.6761 16.732L54.9835 15.581L53.7966 15.4778L53.71 16.474ZM41.82 61V62H42.588L42.7862 61.258L41.82 61ZM30.422 61L29.4567 61.2613L29.6567 62H30.422V61ZM18.368 16.474L18.328 15.4748L17.0751 15.5249L17.4027 16.7353L18.368 16.474ZM20.418 16.392L21.4116 16.5052L21.5437 15.3462L20.378 15.3928L20.418 16.392ZM15.334 61V62H16.2265L16.3276 61.1132L15.334 61ZM4.60132 61.1154L11.6533 0.435438L9.66669 0.20456L2.61469 60.8846L4.60132 61.1154ZM10.66 1.32H22.304V-0.680001H10.66V1.32ZM21.3461 0.607192L35.2861 47.1012L37.2019 46.5268L23.2619 0.0328063L21.3461 0.607192ZM37.2023 47.0996L51.0603 0.605641L49.1437 0.0343575L35.2857 46.5284L37.2023 47.0996ZM50.102 1.32H61.664V-0.680001H50.102V1.32ZM60.6708 0.436763L67.8048 61.1168L69.7912 60.8832L62.6572 0.203236L60.6708 0.436763ZM68.798 60H57.072V62H68.798V60ZM58.0652 60.8834L52.8172 16.1934L50.8308 16.4266L56.0788 61.1166L58.0652 60.8834ZM51.7374 17.3062L53.6234 17.4702L53.7966 15.4778L51.9106 15.3138L51.7374 17.3062ZM52.7439 16.216L40.8539 60.742L42.7862 61.258L54.6761 16.732L52.7439 16.216ZM41.82 60H30.422V62H41.82V60ZM31.3873 60.7387L19.3333 16.2127L17.4027 16.7353L29.4567 61.2613L31.3873 60.7387ZM18.408 17.4732L20.458 17.3912L20.378 15.3928L18.328 15.4748L18.408 17.4732ZM19.4244 16.2788L14.3404 60.8868L16.3276 61.1132L21.4116 16.5052L19.4244 16.2788ZM15.334 60H3.608V62H15.334V60ZM88.7874 61H87.7874V62H88.7874V61ZM88.7874 42.632H89.7874V42.4252L89.7054 42.2353L88.7874 42.632ZM70.5014 0.319999V-0.680001H68.9799L69.5835 0.716708L70.5014 0.319999ZM83.1294 0.319999L84.0579 -0.0513915L83.8065 -0.680001H83.1294V0.319999ZM95.1014 30.25L94.1729 30.6214L95.1046 32.9506L96.0308 30.6192L95.1014 30.25ZM106.991 0.319999V-0.680001H106.313L106.062 -0.0491955L106.991 0.319999ZM119.127 0.319999L120.046 0.715207L120.646 -0.680001H119.127V0.319999ZM100.923 42.632L100.005 42.2368L99.9234 42.426V42.632H100.923ZM100.923 61V62H101.923V61H100.923ZM89.7874 61V42.632H87.7874V61H89.7874ZM89.7054 42.2353L71.4194 -0.0767094L69.5835 0.716708L87.8695 43.0287L89.7054 42.2353ZM70.5014 1.32H83.1294V-0.680001H70.5014V1.32ZM82.2009 0.69139L94.1729 30.6214L96.0299 29.8786L84.0579 -0.0513915L82.2009 0.69139ZM96.0308 30.6192L107.921 0.689194L106.062 -0.0491955L94.1721 29.8808L96.0308 30.6192ZM106.991 1.32H119.127V-0.680001H106.991V1.32ZM118.209 -0.0752088L100.005 42.2368L101.842 43.0272L120.046 0.715207L118.209 -0.0752088ZM99.9234 42.632V61H101.923V42.632H99.9234ZM100.923 60H88.7874V62H100.923V60Z" fill="#77AAF9" mask="url(#path-1-outside-1_3488_17259)"/>
<path d="M136.248 61V14.178C136.248 11.4993 136.658 9.258 137.478 7.454C138.298 5.65 139.391 4.22866 140.758 3.19C142.125 2.15133 143.628 1.41333 145.268 0.975996C146.908 0.538665 148.521 0.319999 150.106 0.319999C152.074 0.319999 154.507 0.347332 157.404 0.401998C160.356 0.401998 163.472 0.483997 166.752 0.647995C170.087 0.811996 173.285 1.058 176.346 1.386V11.554H153.468C151.773 11.554 150.489 12.0187 149.614 12.948C148.794 13.8227 148.384 14.998 148.384 16.474V26.806L172.41 27.462V37.056L148.384 37.712V61H136.248ZM184.055 61V0.319999H196.191V61H184.055ZM219.427 61V11.226H202.781V0.319999H248.291V11.226H231.563V61H219.427Z" fill="#3E86F5"/>
</svg>
