<svg width="29" height="28" viewBox="0 0 29 28" fill="none" xmlns="http://www.w3.org/2000/svg">
<rect x="0.38916" width="28" height="28" rx="6" fill="#F5F9FF"/>
<path d="M20.5543 11.1929C19.2477 15.4779 15.8671 18.8586 11.582 20.1651C9.46892 20.8094 7.63916 18.9591 7.63916 16.75V16.6875C7.63916 16.1352 8.0884 15.6937 8.63689 15.6291C9.36448 15.5434 10.0637 15.3651 10.7225 15.1064L12.0044 16.3882C14.0894 15.3905 15.7796 13.7002 16.7774 11.6153L15.4955 10.3334C15.7543 9.67457 15.9326 8.97532 16.0183 8.24773C16.0829 7.69924 16.5244 7.25 17.0767 7.25H17.1392C19.3483 7.25 21.1986 9.07976 20.5543 11.1929Z" stroke="#3E86F5" stroke-linecap="round" stroke-linejoin="round"/>
</svg>
