<svg width="24" height="24" viewBox="0 0 24 24" fill="none" xmlns="http://www.w3.org/2000/svg">
<path d="M0 6C0 2.68629 2.68629 0 6 0H18C21.3137 0 24 2.68629 24 6V18C24 21.3137 21.3137 24 18 24H6C2.68629 24 0 21.3137 0 18V6Z" fill="#77AAF9"/>
<path d="M18.1651 9.19286C16.8586 13.4779 13.4779 16.8586 9.19286 18.1651C7.07976 18.8094 5.25 16.9591 5.25 14.75V14.6875C5.25 14.1352 5.69924 13.6937 6.24773 13.6291C6.97532 13.5434 7.67457 13.3651 8.33338 13.1064L9.61527 14.3882C11.7002 13.3905 13.3905 11.7002 14.3882 9.61528L13.1064 8.33339C13.3651 7.67457 13.5434 6.97532 13.6291 6.24773C13.6937 5.69924 14.1352 5.25 14.6875 5.25H14.75C16.9591 5.25 18.8094 7.07976 18.1651 9.19286Z" stroke="white" stroke-linecap="round" stroke-linejoin="round"/>
</svg>
