<svg width="28" height="28" viewBox="0 0 28 28" fill="none" xmlns="http://www.w3.org/2000/svg">
<rect width="28" height="28" rx="6" fill="#F5F9FF"/>
<path d="M14 20.75C17.7279 20.75 20.75 17.7279 20.75 14C20.75 10.2721 17.7279 7.25 14 7.25C10.2721 7.25 7.25 10.2721 7.25 14C7.25 17.7279 10.2721 20.75 14 20.75Z" stroke="#3E86F5" stroke-linecap="round" stroke-linejoin="round"/>
<path d="M14.75 16.625C14.75 17.0392 14.4142 17.375 14 17.375C13.5858 17.375 13.25 17.0392 13.25 16.625C13.25 16.2108 13.5858 15.875 14 15.875C14.4142 15.875 14.75 16.2108 14.75 16.625Z" fill="#3E86F5"/>
<path d="M12.9393 11.0856C13.2316 10.7933 13.6144 10.6469 13.9974 10.6462C14.3821 10.6456 14.7671 10.792 15.0607 11.0856C15.3536 11.3785 15.5 11.7623 15.5 12.1462C15.5 12.5301 15.3536 12.914 15.0607 13.2069C14.7671 13.5004 14.3821 13.6469 13.9974 13.6462L14 14.3962" stroke="#3E86F5" stroke-linecap="round" stroke-linejoin="round"/>
</svg>
