<svg width="18" height="18" viewBox="0 0 18 18" fill="none" xmlns="http://www.w3.org/2000/svg">
<path d="M9 15.75C12.7279 15.75 15.75 12.7279 15.75 9C15.75 5.27208 12.7279 2.25 9 2.25C5.27208 2.25 2.25 5.27208 2.25 9C2.25 12.7279 5.27208 15.75 9 15.75Z" stroke="#3E86F5" stroke-linecap="round" stroke-linejoin="round"/>
<path d="M9.75 11.625C9.75 12.0392 9.41421 12.375 9 12.375C8.58579 12.375 8.25 12.0392 8.25 11.625C8.25 11.2108 8.58579 10.875 9 10.875C9.41421 10.875 9.75 11.2108 9.75 11.625Z" fill="#3E86F5"/>
<path d="M7.93934 6.08562C8.23156 5.7934 8.61435 5.64696 8.99735 5.64629C9.38212 5.64561 9.76709 5.79206 10.0607 6.08562C10.3536 6.37852 10.5 6.7624 10.5 7.14629C10.5 7.53017 10.3536 7.91405 10.0607 8.20694C9.76709 8.50051 9.38212 8.64696 8.99735 8.64628L9 9.39629" stroke="#3E86F5" stroke-linecap="round" stroke-linejoin="round"/>
</svg>
