<svg width="20" height="20" viewBox="0 0 20 20" fill="none" xmlns="http://www.w3.org/2000/svg">
<path d="M10.0001 17.0909C13.9163 17.0909 17.091 13.9162 17.091 10C17.091 6.0838 13.9163 2.90909 10.0001 2.90909C6.08389 2.90909 2.90918 6.0838 2.90918 10C2.90918 13.9162 6.08389 17.0909 10.0001 17.0909Z" stroke="#252525" stroke-linecap="round" stroke-linejoin="round"/>
<path d="M10.7877 12.7576C10.7877 13.1927 10.4349 13.5455 9.99979 13.5455C9.56466 13.5455 9.21191 13.1927 9.21191 12.7576C9.21191 12.3224 9.56466 11.9697 9.99979 11.9697C10.4349 11.9697 10.7877 12.3224 10.7877 12.7576Z" fill="#252525"/>
<path d="M8.88577 6.93842C9.19275 6.63144 9.59488 6.4776 9.99722 6.47689C10.4014 6.47618 10.8058 6.63002 11.1142 6.93842C11.4219 7.2461 11.5758 7.64938 11.5758 8.05265C11.5758 8.45592 11.4219 8.85919 11.1142 9.16688C10.8058 9.47527 10.4014 9.62911 9.99722 9.6284L10 10.4163" stroke="#252525" stroke-linecap="round" stroke-linejoin="round"/>
</svg>
