<svg width="25" height="24" viewBox="0 0 25 24" fill="none" xmlns="http://www.w3.org/2000/svg">
<path d="M0.38916 6C0.38916 2.68629 3.07545 0 6.38916 0H18.3892C21.7029 0 24.3892 2.68629 24.3892 6V18C24.3892 21.3137 21.7029 24 18.3892 24H6.38916C3.07545 24 0.38916 21.3137 0.38916 18V6Z" fill="#FF8888"/>
<path d="M6.38916 8.25H18.3892M10.8892 11.25V15.75M13.8892 11.25V15.75M7.13916 8.25L7.88916 17.25C7.88916 17.6478 8.0472 18.0294 8.3285 18.3107C8.6098 18.592 8.99134 18.75 9.38916 18.75H15.3892C15.787 18.75 16.1685 18.592 16.4498 18.3107C16.7311 18.0294 16.8892 17.6478 16.8892 17.25L17.6392 8.25M10.1392 8.25V6C10.1392 5.80109 10.2182 5.61032 10.3588 5.46967C10.4995 5.32902 10.6902 5.25 10.8892 5.25H13.8892C14.0881 5.25 14.2788 5.32902 14.4195 5.46967C14.5601 5.61032 14.6392 5.80109 14.6392 6V8.25" stroke="white" stroke-linecap="round" stroke-linejoin="round"/>
</svg>
