<svg width="28" height="28" viewBox="0 0 28 28" fill="none" xmlns="http://www.w3.org/2000/svg">
<path d="M0 14C0 6.26801 6.26801 0 14 0C21.732 0 28 6.26801 28 14C28 21.732 21.732 28 14 28C6.26801 28 0 21.732 0 14Z" fill="#F5F9FF"/>
<path d="M8 10.25H20M12.5 13.25V17.75M15.5 13.25V17.75M8.75 10.25L9.5 19.25C9.5 19.6478 9.65804 20.0294 9.93934 20.3107C10.2206 20.592 10.6022 20.75 11 20.75H17C17.3978 20.75 17.7794 20.592 18.0607 20.3107C18.342 20.0294 18.5 19.6478 18.5 19.25L19.25 10.25M11.75 10.25V8C11.75 7.80109 11.829 7.61032 11.9697 7.46967C12.1103 7.32902 12.3011 7.25 12.5 7.25H15.5C15.6989 7.25 15.8897 7.32902 16.0303 7.46967C16.171 7.61032 16.25 7.80109 16.25 8V10.25" stroke="#FF3D00" stroke-linecap="round" stroke-linejoin="round"/>
</svg>
