<svg width="24" height="24" viewBox="0 0 24 24" fill="none" xmlns="http://www.w3.org/2000/svg">
<path d="M0 6C0 2.68629 2.68629 0 6 0H18C21.3137 0 24 2.68629 24 6V18C24 21.3137 21.3137 24 18 24H6C2.68629 24 0 21.3137 0 18V6Z" fill="#F5F9FF"/>
<path d="M12 14.375C13.0355 14.375 13.875 13.5355 13.875 12.5C13.875 11.4645 13.0355 10.625 12 10.625C10.9645 10.625 10.125 11.4645 10.125 12.5C10.125 13.5355 10.9645 14.375 12 14.375Z" stroke="#3E86F5" stroke-linecap="round" stroke-linejoin="round"/>
<path d="M16.2045 14.2045C16.1289 14.3759 16.1064 14.566 16.1398 14.7503C16.1732 14.9347 16.2611 15.1047 16.392 15.2386L16.4261 15.2727C16.5318 15.3783 16.6156 15.5036 16.6728 15.6415C16.73 15.7795 16.7594 15.9274 16.7594 16.0767C16.7594 16.226 16.73 16.3739 16.6728 16.5119C16.6156 16.6498 16.5318 16.7751 16.4261 16.8807C16.3206 16.9863 16.1953 17.0702 16.0573 17.1273C15.9194 17.1845 15.7715 17.214 15.6222 17.214C15.4728 17.214 15.325 17.1845 15.187 17.1273C15.049 17.0702 14.9237 16.9863 14.8182 16.8807L14.7841 16.8466C14.6502 16.7156 14.4801 16.6277 14.2958 16.5943C14.1115 16.5609 13.9214 16.5835 13.75 16.6591C13.5819 16.7311 13.4386 16.8507 13.3377 17.0031C13.2367 17.1556 13.1825 17.3342 13.1818 17.517V17.6136C13.1818 17.915 13.0621 18.2041 12.849 18.4172C12.6359 18.6303 12.3468 18.75 12.0455 18.75C11.7441 18.75 11.455 18.6303 11.2419 18.4172C11.0288 18.2041 10.9091 17.915 10.9091 17.6136V17.5625C10.9047 17.3744 10.8438 17.192 10.7344 17.039C10.6249 16.886 10.472 16.7695 10.2955 16.7045C10.1241 16.6289 9.93398 16.6064 9.74967 16.6398C9.56535 16.6732 9.39527 16.7611 9.26136 16.892L9.22727 16.9261C9.12174 17.0318 8.99641 17.1156 8.85845 17.1728C8.7205 17.23 8.57263 17.2594 8.4233 17.2594C8.27396 17.2594 8.12609 17.23 7.98814 17.1728C7.85018 17.1156 7.72486 17.0318 7.61932 16.9261C7.51366 16.8206 7.42985 16.6953 7.37266 16.5573C7.31547 16.4194 7.28604 16.2715 7.28604 16.1222C7.28604 15.9728 7.31547 15.825 7.37266 15.687C7.42985 15.549 7.51366 15.4237 7.61932 15.3182L7.65341 15.2841C7.7844 15.1502 7.87226 14.9801 7.90568 14.7958C7.9391 14.6115 7.91654 14.4214 7.84091 14.25C7.76888 14.0819 7.64929 13.9386 7.49686 13.8377C7.34442 13.7367 7.16579 13.6825 6.98295 13.6818H6.88636C6.58498 13.6818 6.29594 13.5621 6.08283 13.349C5.86972 13.1359 5.75 12.8468 5.75 12.5455C5.75 12.2441 5.86972 11.955 6.08283 11.7419C6.29594 11.5288 6.58498 11.4091 6.88636 11.4091H6.9375C7.12557 11.4047 7.30796 11.3438 7.46097 11.2344C7.61397 11.1249 7.73052 10.972 7.79545 10.7955C7.87109 10.6241 7.89365 10.434 7.86023 10.2497C7.82681 10.0654 7.73894 9.89527 7.60795 9.76136L7.57386 9.72727C7.46821 9.62174 7.38439 9.49641 7.3272 9.35845C7.27002 9.2205 7.24058 9.07263 7.24058 8.9233C7.24058 8.77396 7.27002 8.62609 7.3272 8.48814C7.38439 8.35018 7.46821 8.22486 7.57386 8.11932C7.6794 8.01366 7.80473 7.92985 7.94268 7.87266C8.08063 7.81547 8.22851 7.78604 8.37784 7.78604C8.52718 7.78604 8.67505 7.81547 8.813 7.87266C8.95095 7.92985 9.07628 8.01366 9.18182 8.11932L9.21591 8.15341C9.34982 8.2844 9.5199 8.37226 9.70421 8.40568C9.88853 8.4391 10.0786 8.41654 10.25 8.34091H10.2955C10.4635 8.26888 10.6068 8.14929 10.7078 7.99686C10.8087 7.84442 10.8629 7.66579 10.8636 7.48295V7.38636C10.8636 7.08498 10.9834 6.79594 11.1965 6.58283C11.4096 6.36972 11.6986 6.25 12 6.25C12.3014 6.25 12.5904 6.36972 12.8035 6.58283C13.0166 6.79594 13.1364 7.08498 13.1364 7.38636V7.4375C13.1371 7.62033 13.1913 7.79896 13.2922 7.9514C13.3932 8.10384 13.5365 8.22343 13.7045 8.29545C13.8759 8.37109 14.066 8.39365 14.2503 8.36023C14.4347 8.32681 14.6047 8.23894 14.7386 8.10795L14.7727 8.07386C14.8783 7.96821 15.0036 7.88439 15.1415 7.8272C15.2795 7.77002 15.4274 7.74058 15.5767 7.74058C15.726 7.74058 15.8739 7.77002 16.0119 7.8272C16.1498 7.88439 16.2751 7.96821 16.3807 8.07386C16.4863 8.1794 16.5702 8.30473 16.6273 8.44268C16.6845 8.58063 16.714 8.72851 16.714 8.87784C16.714 9.02718 16.6845 9.17505 16.6273 9.313C16.5702 9.45095 16.4863 9.57628 16.3807 9.68182L16.3466 9.71591C16.2156 9.84982 16.1277 10.0199 16.0943 10.2042C16.0609 10.3885 16.0835 10.5786 16.1591 10.75V10.7955C16.2311 10.9635 16.3507 11.1068 16.5031 11.2078C16.6556 11.3087 16.8342 11.3629 17.017 11.3636H17.1136C17.415 11.3636 17.7041 11.4834 17.9172 11.6965C18.1303 11.9096 18.25 12.1986 18.25 12.5C18.25 12.8014 18.1303 13.0904 17.9172 13.3035C17.7041 13.5166 17.415 13.6364 17.1136 13.6364H17.0625C16.8797 13.6371 16.701 13.6913 16.5486 13.7922C16.3962 13.8932 16.2766 14.0365 16.2045 14.2045Z" stroke="#3E86F5" stroke-linecap="round" stroke-linejoin="round"/>
</svg>
