<svg width="28" height="28" viewBox="0 0 28 28" fill="none" xmlns="http://www.w3.org/2000/svg">
<path d="M0 6C0 2.68629 2.68629 0 6 0H22C25.3137 0 28 2.68629 28 6V22C28 25.3137 25.3137 28 22 28H6C2.68629 28 0 25.3137 0 22V6Z" fill="#F5F9FF"/>
<path d="M14 15.5C14.8284 15.5 15.5 14.8284 15.5 14C15.5 13.1716 14.8284 12.5 14 12.5C13.1716 12.5 12.5 13.1716 12.5 14C12.5 14.8284 13.1716 15.5 14 15.5Z" stroke="#77AAF9" stroke-linecap="round" stroke-linejoin="round"/>
<path d="M20.75 14C19.3336 16.2432 16.7887 18.5 14 18.5C11.2113 18.5 8.66642 16.2432 7.25 14C8.97391 11.8687 10.9937 9.5 14 9.5C17.0063 9.5 19.0261 11.8687 20.75 14Z" stroke="#77AAF9" stroke-linecap="round" stroke-linejoin="round"/>
</svg>
