<svg width="24" height="24" viewBox="0 0 24 24" fill="none" xmlns="http://www.w3.org/2000/svg">
<path d="M0 6C0 2.68629 2.68629 0 6 0H18C21.3137 0 24 2.68629 24 6V18C24 21.3137 21.3137 24 18 24H6C2.68629 24 0 21.3137 0 18V6Z" fill="#F5F9FF"/>
<path d="M11.5594 8.12912C11.748 7.77759 12.252 7.77759 12.4406 8.12912L13.2596 9.65596C13.4761 10.0594 13.865 10.342 14.3156 10.4231L16.0208 10.7303C16.4134 10.801 16.5692 11.2804 16.2931 11.5684L15.0941 12.8191C14.7772 13.1497 14.6287 13.6068 14.6908 14.0605L14.9256 15.7771C14.9797 16.1724 14.5719 16.4687 14.2127 16.2951L12.6526 15.5413C12.2403 15.3421 11.7597 15.3421 11.3474 15.5413L9.78732 16.2951C9.42814 16.4687 9.02033 16.1724 9.0744 15.7771L9.30924 14.0605C9.3713 13.6068 9.22276 13.1497 8.90591 12.8191L7.70689 11.5684L7.34594 11.9144L7.70689 11.5684C7.43083 11.2804 7.5866 10.801 7.9792 10.7303L9.68441 10.4231C10.135 10.342 10.5239 10.0594 10.7404 9.65596L11.5594 8.12912Z" stroke="#3E86F5"/>
</svg>
