<svg width="24" height="24" viewBox="0 0 24 24" fill="none" xmlns="http://www.w3.org/2000/svg">
<path d="M0 6C0 2.68629 2.68629 0 6 0H18C21.3137 0 24 2.68629 24 6V18C24 21.3137 21.3137 24 18 24H6C2.68629 24 0 21.3137 0 18V6Z" fill="#77AAF9"/>
<path d="M17.2399 7.03611C17.3334 6.3457 16.759 5.80076 16.2219 6.07028L5.52361 11.4384C5.13842 11.6317 5.1666 12.2985 5.5661 12.4439L7.77232 13.2469C8.19345 13.4001 8.64937 13.3209 9.01709 13.0305L13.7443 9.57731C13.8943 9.45885 14.0578 9.70262 13.9296 9.85357L10.5961 13.5982C10.2487 14.0075 10.3177 14.701 10.7355 15.0004L14.7442 17.8734C15.1939 18.1956 15.7723 17.8719 15.8563 17.2509L17.2399 7.03611Z" stroke="white"/>
</svg>
