<svg width="44" height="24" viewBox="0 0 44 24" fill="none" xmlns="http://www.w3.org/2000/svg">
<g clip-path="url(#clip0_3478_11467)">
<rect x="9" y="11" width="25" height="2" rx="1" fill="#9DC1F5"/>
<g filter="url(#filter0_d_3478_11467)">
<path d="M23 12C23 7.02944 27.0294 3 32 3C36.9706 3 41 7.02944 41 12C41 16.9706 36.9706 21 32 21C27.0294 21 23 16.9706 23 12Z" fill="white"/>
<path d="M28 12.6L30.2857 15L36 9" stroke="#77AAF9" stroke-linecap="round" stroke-linejoin="round"/>
</g>
</g>
<path d="M0.5 12C0.5 5.64873 5.64873 0.5 12 0.5H32C38.3513 0.5 43.5 5.64873 43.5 12C43.5 18.3513 38.3513 23.5 32 23.5H12C5.64873 23.5 0.5 18.3513 0.5 12Z" stroke="#77AAF9"/>
<defs>
<filter id="filter0_d_3478_11467" x="17.8" y="-0.2" width="28.4" height="28.4" filterUnits="userSpaceOnUse" color-interpolation-filters="sRGB">
<feFlood flood-opacity="0" result="BackgroundImageFix"/>
<feColorMatrix in="SourceAlpha" type="matrix" values="0 0 0 0 0 0 0 0 0 0 0 0 0 0 0 0 0 0 127 0" result="hardAlpha"/>
<feOffset dy="2"/>
<feGaussianBlur stdDeviation="2.6"/>
<feComposite in2="hardAlpha" operator="out"/>
<feColorMatrix type="matrix" values="0 0 0 0 0 0 0 0 0 0 0 0 0 0 0 0 0 0 0.17 0"/>
<feBlend mode="normal" in2="BackgroundImageFix" result="effect1_dropShadow_3478_11467"/>
<feBlend mode="normal" in="SourceGraphic" in2="effect1_dropShadow_3478_11467" result="shape"/>
</filter>
<clipPath id="clip0_3478_11467">
<path d="M0 12C0 5.37258 5.37258 0 12 0H32C38.6274 0 44 5.37258 44 12C44 18.6274 38.6274 24 32 24H12C5.37258 24 0 18.6274 0 12Z" fill="white"/>
</clipPath>
</defs>
</svg>
