<svg width="44" height="24" viewBox="0 0 44 24" fill="none" xmlns="http://www.w3.org/2000/svg">
<g clip-path="url(#clip0_3478_11503)">
<rect x="9" y="11" width="25" height="2" rx="1" fill="#D4E5FF"/>
<g filter="url(#filter0_d_3478_11503)">
<path d="M6 12C6 8.13401 9.13401 5 13 5C16.866 5 20 8.13401 20 12C20 15.866 16.866 19 13 19C9.13401 19 6 15.866 6 12Z" fill="white"/>
<path d="M6.5 12C6.5 8.41015 9.41015 5.5 13 5.5C16.5899 5.5 19.5 8.41015 19.5 12C19.5 15.5899 16.5899 18.5 13 18.5C9.41015 18.5 6.5 15.5899 6.5 12Z" stroke="white"/>
<path d="M8.91602 12.5833L11.2493 14.9166L17.0827 9.08331" stroke="white" stroke-linecap="round" stroke-linejoin="round"/>
</g>
</g>
<path d="M0.5 12C0.5 5.64873 5.64873 0.5 12 0.5H32C38.3513 0.5 43.5 5.64873 43.5 12C43.5 18.3513 38.3513 23.5 32 23.5H12C5.64873 23.5 0.5 18.3513 0.5 12Z" stroke="#D4E5FF"/>
<defs>
<filter id="filter0_d_3478_11503" x="0.8" y="1.8" width="24.4" height="24.4" filterUnits="userSpaceOnUse" color-interpolation-filters="sRGB">
<feFlood flood-opacity="0" result="BackgroundImageFix"/>
<feColorMatrix in="SourceAlpha" type="matrix" values="0 0 0 0 0 0 0 0 0 0 0 0 0 0 0 0 0 0 127 0" result="hardAlpha"/>
<feOffset dy="2"/>
<feGaussianBlur stdDeviation="2.6"/>
<feComposite in2="hardAlpha" operator="out"/>
<feColorMatrix type="matrix" values="0 0 0 0 0 0 0 0 0 0 0 0 0 0 0 0 0 0 0.17 0"/>
<feBlend mode="normal" in2="BackgroundImageFix" result="effect1_dropShadow_3478_11503"/>
<feBlend mode="normal" in="SourceGraphic" in2="effect1_dropShadow_3478_11503" result="shape"/>
</filter>
<clipPath id="clip0_3478_11503">
<path d="M0 12C0 5.37258 5.37258 0 12 0H32C38.6274 0 44 5.37258 44 12C44 18.6274 38.6274 24 32 24H12C5.37258 24 0 18.6274 0 12Z" fill="white"/>
</clipPath>
</defs>
</svg>
