<svg width="29" height="28" viewBox="0 0 29 28" fill="none" xmlns="http://www.w3.org/2000/svg">
<rect x="0.38916" width="28" height="28" rx="6" fill="#F5F9FF"/>
<path d="M14.3892 6.5C10.247 6.5 6.88916 9.85786 6.88916 14C6.88916 18.1421 10.247 21.5 14.3892 21.5C18.5313 21.5 21.8892 18.1421 21.8892 14C21.8892 9.85786 18.5313 6.5 14.3892 6.5Z" stroke="#3E86F5" stroke-linecap="round" stroke-linejoin="round"/>
<path d="M8.59229 18.7593C8.59229 18.7593 10.2641 16.625 14.3891 16.625C18.5141 16.625 20.1858 18.7593 20.1858 18.7593" stroke="#3E86F5" stroke-linecap="round" stroke-linejoin="round"/>
<path d="M14.3892 14C15.6318 14 16.6392 12.9926 16.6392 11.75C16.6392 10.5074 15.6318 9.5 14.3892 9.5C13.1465 9.5 12.1392 10.5074 12.1392 11.75C12.1392 12.9926 13.1465 14 14.3892 14Z" stroke="#3E86F5" stroke-linecap="round" stroke-linejoin="round"/>
</svg>
