<svg width="24" height="24" viewBox="0 0 24 24" fill="none" xmlns="http://www.w3.org/2000/svg">
<path d="M0 6C0 2.68629 2.68629 0 6 0H18C21.3137 0 24 2.68629 24 6V18C24 21.3137 21.3137 24 18 24H6C2.68629 24 0 21.3137 0 18V6Z" fill="#77AAF9"/>
<path d="M13.5 16.5H10.5C8.9087 16.5 7.38258 15.8679 6.25736 14.7426C5.13214 13.6174 4.5 12.0913 4.5 10.5V6.75H7.5V10.5C7.5 11.2956 7.81607 12.0587 8.37868 12.6213C8.94129 13.1839 9.70435 13.5 10.5 13.5V6.75H13.5V10.125L13.5225 10.122C14.3445 10.0194 15.1008 9.62014 15.6491 8.99919C16.1974 8.37824 16.5 7.57839 16.5 6.75H19.5L19.2435 8.03325C19.0899 8.80131 18.7629 9.52415 18.2874 10.1466C17.8119 10.7691 17.2006 11.2747 16.5 11.625C17.1813 11.852 17.789 12.2579 18.2595 12.8004C18.73 13.3428 19.046 14.0018 19.1745 14.7083L19.5 16.5H16.5C16.5 15.6716 16.1974 14.8718 15.6491 14.2508C15.1008 13.6299 14.3445 13.2306 13.5225 13.128V16.503L13.5 16.5Z" stroke="white" stroke-linecap="round" stroke-linejoin="round"/>
</svg>
