<svg width="41" height="40" viewBox="0 0 41 40" fill="none" xmlns="http://www.w3.org/2000/svg">
<path d="M1 8C1 3.85786 4.35786 0.5 8.5 0.5H32.5C36.6421 0.5 40 3.85786 40 8V32C40 36.1421 36.6421 39.5 32.5 39.5H8.5C4.35786 39.5 1 36.1421 1 32V8Z" fill="#77AAF9"/>
<path d="M1 8C1 3.85786 4.35786 0.5 8.5 0.5H32.5C36.6421 0.5 40 3.85786 40 8V32C40 36.1421 36.6421 39.5 32.5 39.5H8.5C4.35786 39.5 1 36.1421 1 32V8Z" stroke="#599AFE"/>
<path d="M20.5 15.4167V20H25.0833M20.5 28.25C15.9437 28.25 12.25 24.5563 12.25 20C12.25 15.4437 15.9437 11.75 20.5 11.75C25.0563 11.75 28.75 15.4437 28.75 20C28.75 24.5563 25.0563 28.25 20.5 28.25Z" stroke="white" stroke-width="1.4" stroke-linecap="round" stroke-linejoin="round"/>
</svg>
